# xmcd
#
# Track frame offsets:
#	150
#	24585
#	46485
#	65100
#	89685
#	118605
#	146335
#	166755
#	184810
#
# Disc length: 2844 seconds
#
# Revision: 2
# Processed by: cddbd v1.5.1PL2 Copyright (c) Steve Scherf et al.
# Submitted via: EasyCDDAExtractor 8.0.2.1
#
DISCID=7c0b1a09
DTITLE=Black Sabbath - Tower Theatre Philadelphia 18-02-94 Disc 2
DYEAR=1994
DGENRE=Hard Rock
TTITLE0=Neon Knights
TTITLE1=Immaculate Deception
TTITLE2=The Wizard
TTITLE3=Cross Of Thorns
TTITLE4=Symptom Of The Universe
TTITLE5=Headless Cross
TTITLE6=Paranoid
TTITLE7=Iron Man
TTITLE8=Sabbath Bloody Sabbath
EXTD=
EXTT0=
EXTT1=
EXTT2=
EXTT3=
EXTT4=
EXTT5=
EXTT6=
EXTT7=
EXTT8=
PLAYORDER=
